<svg width="132" height="41" viewBox="0 0 132 41" fill="none" xmlns="http://www.w3.org/2000/svg">
<path d="M30.6901 7.63989C29.4301 7.63989 28.3702 8.73001 28.3902 10.01C28.4102 11.31 29.4501 12.3301 30.7401 12.3101C32.0301 12.3001 33.0602 11.24 33.0402 9.95996C33.0202 8.66996 31.9702 7.63989 30.6802 7.63989H30.6901Z" fill="#6D6E70"/>
<path d="M40.5402 20.66C40.5402 18.14 40.5702 15.6202 40.5402 13.1002C40.4502 5.99017 35.0501 0.62016 27.9501 0.59016C22.9801 0.57016 18.0102 0.58016 13.0502 0.59016C5.92017 0.61016 0.420137 6.13011 0.390137 13.2901C0.370137 18.1901 0.370117 23.1001 0.370117 28.0001C0.370117 35.2401 5.83017 40.7401 13.0502 40.7601C17.9502 40.7701 22.8601 40.6701 27.7601 40.7601C34.8701 40.8901 40.7802 34.96 40.5502 27.9C40.4702 25.48 40.5402 23.06 40.5402 20.64V20.66ZM36.7301 28.2801C36.7001 33.1301 32.9501 36.92 28.0901 36.95C22.9901 36.98 17.8902 36.98 12.7902 36.94C8.07016 36.9 4.30012 33.12 4.25012 28.38C4.20012 23.41 4.17018 18.44 4.18018 13.47C4.19018 8.10004 7.91012 4.39997 13.2501 4.38997C18.0501 4.38997 22.8501 4.38997 27.6501 4.39997C33.0401 4.41997 36.7001 8.10004 36.7101 13.47C36.7101 15.89 36.7101 18.31 36.7101 20.72H36.7201C36.7201 23.24 36.7301 25.7601 36.7201 28.2701L36.7301 28.2801Z" fill="#6D6E70"/>
<path d="M20.4602 10.6C14.8502 10.63 10.4003 15.1499 10.4303 20.7799C10.4603 26.2999 14.9402 30.7499 20.4502 30.7499C26.0502 30.7499 30.5603 26.22 30.5403 20.62C30.5203 15.06 26.0002 10.57 20.4602 10.6ZM20.4803 26.9198C16.9803 26.9198 14.2302 24.1799 14.2102 20.6999C14.2002 17.1699 16.9703 14.4198 20.5203 14.4298C23.9903 14.4498 26.7603 17.2299 26.7503 20.6999C26.7403 24.1699 23.9602 26.9198 20.4702 26.9198H20.4803Z" fill="#6D6E70"/>
<path d="M125.38 3.37012C120.88 3.39012 117.32 6.97998 117.26 11.48C117.24 12.82 117.26 14.16 117.26 15.51C117.26 16.03 117.19 16.5499 117.14 17.1899H111.71V23.8501H117.24V39.75H125.16V23.8401H130.3C130.63 21.5801 130.94 19.4399 131.27 17.1399H125.17C125.17 15.3499 125.15 13.7101 125.17 12.0701C125.19 10.7901 126.11 9.87005 127.39 9.80005C128.14 9.76005 128.9 9.79003 129.65 9.78003C130.2 9.78003 130.74 9.78003 131.35 9.78003V3.77002C130.99 3.70002 130.69 3.60008 130.4 3.58008C128.73 3.49008 127.05 3.3501 125.38 3.3501V3.37012Z" fill="#6D6E70"/>
</svg>
