<svg width="179" height="42" viewBox="0 0 179 42" fill="none" xmlns="http://www.w3.org/2000/svg">
<path d="M84.166 11.4844V31H79.4122V22.9658H72.0174V31H67.2636V11.4844H72.0174V19.1294H79.4122V11.4844H84.166ZM102.221 22.9936C102.221 23.4384 102.193 23.9017 102.137 24.3836H91.3786C91.4527 25.3473 91.7585 26.0887 92.296 26.6076C92.852 27.108 93.5284 27.3582 94.3254 27.3582C95.5115 27.3582 96.3362 26.8578 96.7996 25.857H101.859C101.6 26.8763 101.127 27.7937 100.441 28.6092C99.7742 29.4247 98.9309 30.0641 97.9116 30.5274C96.8922 30.9907 95.7524 31.2224 94.4922 31.2224C92.9724 31.2224 91.6195 30.8981 90.4334 30.2494C89.2472 29.6007 88.3206 28.6741 87.6534 27.4694C86.9862 26.2647 86.6526 24.8562 86.6526 23.2438C86.6526 21.6314 86.9769 20.2229 87.6256 19.0182C88.2928 17.8135 89.2194 16.8869 90.4056 16.2382C91.5917 15.5895 92.9539 15.2652 94.4922 15.2652C95.9934 15.2652 97.3278 15.5803 98.4954 16.2104C99.663 16.8405 100.571 17.7394 101.22 18.907C101.887 20.0746 102.221 21.4368 102.221 22.9936ZM97.3556 21.7426C97.3556 20.9271 97.0776 20.2785 96.5216 19.7966C95.9656 19.3147 95.2706 19.0738 94.4366 19.0738C93.6396 19.0738 92.9632 19.3055 92.4072 19.7688C91.8697 20.2321 91.5361 20.8901 91.4064 21.7426H97.3556ZM103.783 23.216C103.783 21.6221 104.08 20.2229 104.673 19.0182C105.284 17.8135 106.109 16.8869 107.147 16.2382C108.185 15.5895 109.343 15.2652 110.622 15.2652C111.715 15.2652 112.67 15.4876 113.485 15.9324C114.319 16.3772 114.959 16.961 115.404 17.6838V15.4876H120.157V31H115.404V28.8038C114.94 29.5266 114.292 30.1104 113.458 30.5552C112.642 31 111.688 31.2224 110.594 31.2224C109.334 31.2224 108.185 30.8981 107.147 30.2494C106.109 29.5822 105.284 28.6463 104.673 27.4416C104.08 26.2184 103.783 24.8099 103.783 23.216ZM115.404 23.2438C115.404 22.0577 115.07 21.1217 114.403 20.436C113.754 19.7503 112.957 19.4074 112.012 19.4074C111.067 19.4074 110.261 19.7503 109.593 20.436C108.945 21.1032 108.62 22.0299 108.62 23.216C108.62 24.4021 108.945 25.3473 109.593 26.0516C110.261 26.7373 111.067 27.0802 112.012 27.0802C112.957 27.0802 113.754 26.7373 114.403 26.0516C115.07 25.3659 115.404 24.4299 115.404 23.2438ZM128.35 10.428V31H123.597V10.428H128.35ZM140.441 26.969V31H138.023C136.299 31 134.955 30.583 133.992 29.749C133.028 28.8965 132.546 27.5157 132.546 25.6068V19.4352H130.656V15.4876H132.546V11.7068H137.3V15.4876H140.413V19.4352H137.3V25.6624C137.3 26.1257 137.411 26.4593 137.633 26.6632C137.856 26.8671 138.226 26.969 138.745 26.969H140.441ZM152.625 15.3208C154.404 15.3208 155.831 15.9139 156.906 17.1C157.981 18.2676 158.518 19.88 158.518 21.9372V31H153.792V22.5766C153.792 21.5387 153.523 20.7325 152.986 20.158C152.448 19.5835 151.726 19.2962 150.818 19.2962C149.909 19.2962 149.187 19.5835 148.649 20.158C148.112 20.7325 147.843 21.5387 147.843 22.5766V31H143.089V10.428H147.843V17.5726C148.325 16.8869 148.983 16.3401 149.817 15.9324C150.651 15.5247 151.587 15.3208 152.625 15.3208ZM177.668 15.4876L167.938 38.367H162.822L166.381 30.4718L160.07 15.4876H165.38L168.966 25.1898L172.525 15.4876H177.668Z" fill="#93B41B"/>
<path opacity="0.43" d="M6.79 1.45996C6.79 1.45996 6.71 1.53996 6.67 1.57996C5.07 3.20996 3.71 5.06996 2.65 7.10996C1.46 9.37996 0.63 11.87 0.25 14.51C0.08 15.63 0 16.77 0 17.93C0 19.09 0.08 20.23 0.25 21.35C0.63 23.98 1.46 26.48 2.65 28.75C3.72 30.79 5.07 32.65 6.67 34.28C6.71 34.32 6.75 34.36 6.79 34.4V1.45996Z" fill="url(#paint0_linear_577_403)"/>
<path opacity="0.43" d="M46.46 14.5C46.08 11.87 45.25 9.37995 44.06 7.09995C43 5.05995 41.64 3.19995 40.04 1.56995C40 1.52995 39.96 1.48995 39.92 1.44995V34.3699C39.92 34.3699 40 34.29 40.04 34.25C41.64 32.62 42.99 30.76 44.06 28.72C45.25 26.45 46.08 23.95 46.46 21.32C46.63 20.1999 46.71 19.06 46.71 17.9C46.71 16.74 46.63 15.5999 46.46 14.4799V14.5Z" fill="url(#paint1_linear_577_403)"/>
<path d="M23.36 0.959961H23.35C16.7226 0.959961 11.35 6.33254 11.35 12.96V22.87C11.35 29.4974 16.7226 34.87 23.35 34.87H23.36C29.9874 34.87 35.36 29.4974 35.36 22.87V12.96C35.36 6.33254 29.9874 0.959961 23.36 0.959961Z" fill="url(#paint2_linear_577_403)"/>
<defs>
<linearGradient id="paint0_linear_577_403" x1="0" y1="17.92" x2="6.79" y2="17.92" gradientUnits="userSpaceOnUse">
<stop stop-color="#D9E021"/>
<stop offset="1" stop-color="#8CC63F"/>
</linearGradient>
<linearGradient id="paint1_linear_577_403" x1="39.92" y1="17.92" x2="46.71" y2="17.92" gradientUnits="userSpaceOnUse">
<stop stop-color="#D9E021"/>
<stop offset="1" stop-color="#8CC63F"/>
</linearGradient>
<linearGradient id="paint2_linear_577_403" x1="11.35" y1="17.92" x2="35.36" y2="17.92" gradientUnits="userSpaceOnUse">
<stop stop-color="#D9E021"/>
<stop offset="1" stop-color="#8CC63F"/>
</linearGradient>
</defs>
</svg>
