<svg width="22" height="24" viewBox="0 0 22 24" fill="none" xmlns="http://www.w3.org/2000/svg">
<path opacity="0.61" d="M15.2099 23.76C14.8099 23.73 14.4399 23.7101 14.0699 23.6701C13.7999 23.6401 13.5399 23.56 13.2699 23.5C13.0699 23.45 12.8699 23.41 12.6799 23.35C11.8699 23.1 11.1099 22.75 10.3699 22.33C9.59988 21.9 8.88989 21.39 8.19989 20.85C7.60989 20.38 7.04989 19.88 6.50989 19.34C6.08989 18.91 5.66989 18.4801 5.25989 18.0401C4.98989 17.75 4.71985 17.45 4.46985 17.14C4.03985 16.61 3.62991 16.07 3.20991 15.53C2.75991 14.94 2.35987 14.32 1.98987 13.69C1.61987 13.07 1.28988 12.43 0.999883 11.76C0.739883 11.17 0.539878 10.57 0.369878 9.93995C0.269878 9.58995 0.199907 9.23001 0.149907 8.87001C0.0299075 8.09001 0.00985867 7.32004 0.0998587 6.53004C0.179859 5.87004 0.3399 5.24001 0.5799 4.62001C0.7399 4.22001 0.949866 3.84999 1.16987 3.47999C1.55987 2.84999 2.05988 2.30997 2.61988 1.82997C2.92988 1.56997 3.23987 1.30005 3.54987 1.04005C3.81987 0.820051 4.0999 0.610032 4.4499 0.520032C4.8099 0.430032 5.13985 0.480027 5.46985 0.640027C5.80985 0.810027 6.06989 1.06999 6.31989 1.34999C6.74989 1.82999 7.07987 2.37006 7.41987 2.92006C7.59987 3.20006 7.7799 3.48003 7.9499 3.77003C8.2399 4.27003 8.48987 4.79001 8.60987 5.37001C8.67987 5.70001 8.67987 6.03 8.60987 6.36C8.50987 6.81 8.25987 7.19001 7.91987 7.50001C7.42987 7.96001 6.90987 8.38004 6.35987 8.78004C5.91987 9.10004 5.67987 9.53999 5.66987 10.1C5.66987 10.51 5.74991 10.9 5.89991 11.28C6.10991 11.83 6.40987 12.34 6.73987 12.83C7.04987 13.29 7.37988 13.7501 7.74988 14.1701C8.12988 14.6001 8.48989 15.04 8.87989 15.45C9.23989 15.82 9.62989 16.16 10.0099 16.51C10.2999 16.78 10.6299 17.01 10.9699 17.22C11.2599 17.4 11.5599 17.54 11.8799 17.64C12.1999 17.75 12.5399 17.77 12.8699 17.7C13.1999 17.63 13.4899 17.46 13.7199 17.22C14.1499 16.77 14.5999 16.35 15.0799 15.95C15.3899 15.69 15.7399 15.48 16.1399 15.39C16.4599 15.32 16.7799 15.32 17.0999 15.39C17.5799 15.5 17.9999 15.73 18.4099 16.01C18.8499 16.3 19.2599 16.65 19.6499 17C19.9499 17.26 20.2599 17.5201 20.5499 17.7901C20.8699 18.0801 21.1399 18.41 21.3799 18.76C21.6499 19.16 21.7899 19.6 21.6599 20.09C21.6099 20.27 21.5199 20.45 21.4099 20.6C21.1899 20.91 20.8899 21.14 20.6099 21.39C20.4799 21.5 20.3399 21.61 20.2199 21.73C19.8899 22.06 19.5299 22.34 19.1499 22.59C18.7099 22.88 18.2399 23.1201 17.7399 23.2901C17.4099 23.4101 17.0799 23.51 16.7499 23.59C16.5399 23.64 16.3099 23.6601 16.0899 23.6801C15.7799 23.7101 15.4699 23.73 15.1899 23.76H15.2099Z" fill="black"/>
</svg>
